ENGLISH SUBTITLES HARDCODED

Format : AVI
Format/Info : Audio Video Interleave
File size : 618 MiB
Duration : 3h 19mn
Overall bit rate : 433 Kbps
Writing application : MEncoder SVN-r29352(20090610-gcc4.3.3)
Writing library : MPlayer

Video
ID : 0
Format : MPEG-4 Visual
Format profile : AdvancedSimple@L5
Format settings, BVOP : Yes
Format settings, QPel : No
Format settings, GMC : No warppoints
Format settings, Matrix : Default (H.263)
Codec ID : XVID
Codec ID/Hint : XviD
Duration : 1h 39mn
Bit rate : 757 Kbps
Width : 640 pixels
Height : 360 pixels
Display aspect ratio : 16:9
Frame rate : 25.000 fps
Resolution : 24 bits
Colorimetry : 4:2:0
Scan type : Progressive
Bits/(Pixel*Frame) : 0.131
Stream size : 541 MiB (87%)
Writing library : XviD 1.2.1 (UTC 2008-12-04)

Audio
ID : 1
Format : MPEG Audio
Format version : Version 2
Format profile : Layer 3
Codec ID : 55
Codec ID/Hint : MP3
Duration : 3h 19mn
Bit rate mode : Constant
Bit rate : 96.0 Kbps
Channel(s) : 2 channels
Sampling rate : 22.05 KHz
Resolution : 16 bits
Video delay : 80ms
Stream size : 68.6 MiB (11%)
Alignment : Aligned on interleaves
Interleave, duration : 26 ms (0.65 video frame)
Interleave, preload duration : 522 ms
Writing library : LAME3.98

The film focuses on Ip Man's early life and the story of how he learnt Wing Chun. In contrast, Ip Man and Ip Man 2 focus on the events in his life that took place during the Second Sino-Japanese War and after he moved to Hong Kong.

As a child, Ip Man learns Wing Chun from Chan Wah-shun together with Ip Tin-chi (Ip Man's adopted brother) and Lee Mei-wai. After Chan's death from illness, Ip continues to learn Wing Chun from his senior, Ng Chung-sok, before eventually leaving Foshan to study in Hong Kong.
 
http://www.imdb.com/title/tt1641638/

screen shots
 
http://img834.imageshack.us/img834/679/ipmanlegbornxvidviceavi.jpg 
http://img839.imageshack.us/img839/679/ipmanlegbornxvidviceavi.jpg 
http://img220.imageshack.us/img220/679/ipmanlegbornxvidviceavi.jpg 
http://img59.imageshack.us/img59/679/ipmanlegbornxvidviceavi.jpg
 
http://img843.imageshack.us/img843/679/ipmanlegbornxvidviceavi.jpg